<svg width="490" height="456" viewBox="0 0 490 456" fill="none" xmlns="http://www.w3.org/2000/svg">
<path fill-rule="evenodd" clip-rule="evenodd" d="M186.576 186.151L106.173 105.749L111.421 100.501L191.823 180.903L186.576 186.151Z" fill="#219653"/>
<path fill-rule="evenodd" clip-rule="evenodd" d="M367.484 5.24721L186.579 186.153L181.331 180.905L362.237 -0.000315558L367.484 5.24721Z" fill="#219653"/>
<path fill-rule="evenodd" clip-rule="evenodd" d="M186.576 211.277L106.173 130.874L111.421 125.627L191.823 206.029L186.576 211.277Z" fill="#219653"/>
<path fill-rule="evenodd" clip-rule="evenodd" d="M367.481 30.3732L186.576 211.279L181.328 206.031L362.234 25.1257L367.481 30.3732Z" fill="#219653"/>
<path fill-rule="evenodd" clip-rule="evenodd" d="M186.576 236.403L106.173 156L111.421 150.753L191.823 231.155L186.576 236.403Z" fill="#219653"/>
<path fill-rule="evenodd" clip-rule="evenodd" d="M367.481 55.4992L186.576 236.405L181.328 231.157L362.234 50.2516L367.481 55.4992Z" fill="#219653"/>
<path fill-rule="evenodd" clip-rule="evenodd" d="M186.576 261.529L106.173 181.126L111.421 175.879L191.823 256.281L186.576 261.529Z" fill="#219653"/>
<path fill-rule="evenodd" clip-rule="evenodd" d="M367.481 80.6222L186.576 261.528L181.328 256.28L362.234 75.3747L367.481 80.6222Z" fill="#219653"/>
<path fill-rule="evenodd" clip-rule="evenodd" d="M186.576 286.655L106.173 206.252L111.421 201.005L191.823 281.407L186.576 286.655Z" fill="#219653"/>
<path fill-rule="evenodd" clip-rule="evenodd" d="M367.481 105.749L186.576 286.655L181.328 281.407L362.234 100.502L367.481 105.749Z" fill="#219653"/>
<path fill-rule="evenodd" clip-rule="evenodd" d="M186.576 311.229L106.173 230.827L111.421 225.579L191.823 305.982L186.576 311.229Z" fill="#219653"/>
<path fill-rule="evenodd" clip-rule="evenodd" d="M367.481 130.323L186.576 311.229L181.328 305.981L362.234 125.076L367.481 130.323Z" fill="#219653"/>
<path d="M79.2116 395.309L66.7218 433.283L54.2321 395.309H41.2377L28.7479 433.283L16.2582 395.309H0.488281L22.3138 454.225H34.5513L47.6718 413.981L61.4232 454.225H73.7868L94.9815 395.309H79.2116Z" fill="#111111"/>
<path d="M158.915 424.2C158.915 405.78 145.668 393.795 128.889 393.795C111.983 393.795 97.9797 405.906 97.9797 424.704C97.9797 443.123 111.353 455.739 128.889 455.739C139.612 455.739 150.083 450.945 155.508 442.366L145.668 434.923C142.262 439.717 136.08 442.493 129.772 442.493C120.941 442.493 114.633 438.077 112.993 429.877H158.662C158.788 427.732 158.915 425.84 158.915 424.2ZM112.993 419.658C114.759 410.7 121.193 406.79 129.015 406.79C137.215 406.79 143.523 411.584 144.406 419.658H112.993Z" fill="#111111"/>
<path d="M198.09 455.739C208.309 455.739 216.635 451.198 222.06 444.385L211.715 436.185C208.687 439.843 203.641 442.114 198.342 442.114C188.123 442.114 180.806 434.545 180.806 424.704C180.806 414.738 188.123 407.42 198.342 407.42C203.641 407.42 208.687 409.691 211.715 413.35L222.06 405.149C216.635 398.337 208.309 393.795 198.09 393.795C181.059 393.795 166.046 406.033 166.046 424.704C166.046 443.376 181.059 455.739 198.09 455.739Z" fill="#111111"/>
<path d="M265.039 393.795C259.11 393.795 249.648 397.075 246.746 404.266V363.265H232.112V454.225H246.746V423.064C246.746 411.584 255.073 407.673 261.759 407.673C268.319 407.673 273.996 412.719 273.996 422.181V454.225H288.631V421.172C288.631 404.014 280.178 393.795 265.039 393.795Z" fill="#111111"/>
<path d="M360.173 424.2C360.173 405.78 346.926 393.795 330.147 393.795C313.242 393.795 299.238 405.906 299.238 424.704C299.238 443.123 312.611 455.739 330.147 455.739C340.871 455.739 351.342 450.945 356.767 442.366L346.926 434.923C343.52 439.717 337.338 442.493 331.03 442.493C322.199 442.493 315.891 438.077 314.251 429.877H359.921C360.047 427.732 360.173 425.84 360.173 424.2ZM314.251 419.658C316.017 410.7 322.451 406.79 330.273 406.79C338.474 406.79 344.782 411.584 345.665 419.658H314.251Z" fill="#111111"/>
<path d="M399.348 455.739C409.567 455.739 417.894 451.198 423.319 444.385L412.974 436.185C409.946 439.843 404.899 442.114 399.601 442.114C389.382 442.114 382.065 434.545 382.065 424.704C382.065 414.738 389.382 407.42 399.601 407.42C404.899 407.42 409.946 409.691 412.974 413.35L423.319 405.149C417.894 398.337 409.567 393.795 399.348 393.795C382.317 393.795 367.304 406.033 367.304 424.704C367.304 443.376 382.317 455.739 399.348 455.739Z" fill="#111111"/>
<path d="M489.511 454.225L459.989 421.046L483.96 395.309H464.91L448.004 414.107V363.265H433.37V454.225H448.004V427.48L470.965 454.225H489.511Z" fill="#111111"/>
</svg>
