<svg width="121" height="26" viewBox="0 0 121 26" fill="none" xmlns="http://www.w3.org/2000/svg">
<path fill-rule="evenodd" clip-rule="evenodd" d="M14.5604 0.0715403C11.8525 -0.209812 9.12272 0.343007 6.74627 1.65401C4.36982 2.96502 2.46337 4.96985 1.28895 7.39294C0.114541 9.81603 -0.270181 12.5384 0.187671 15.1859C0.645523 17.8335 1.92347 20.2761 3.84586 22.1782C5.76825 24.0802 8.24071 25.3483 10.9234 25.8081C13.6061 26.2679 16.3673 25.8968 18.8275 24.7459C21.2877 23.595 23.3262 21.7208 24.6626 19.3808C25.9991 17.0408 26.568 14.35 26.2911 11.6781C25.9865 8.70823 24.6536 5.93258 22.517 3.81854C20.3803 1.70451 17.5704 0.38124 14.5604 0.0715403ZM14.1333 19.8796C12.6769 20.0723 11.1959 19.8101 9.89846 19.1297C8.60099 18.4493 7.55228 17.385 6.89971 16.0864C6.24715 14.7877 6.02354 13.3201 6.26031 11.8896C6.49708 10.4591 7.18233 9.13781 8.21975 8.11133C9.25718 7.08485 10.5946 6.40482 12.0441 6.1668C13.4936 5.92878 14.9823 6.14475 16.3009 6.78435C17.6195 7.42394 18.7018 8.45502 19.3956 9.73267C20.0895 11.0103 20.36 12.4703 20.1692 13.9074C19.9689 15.419 19.2691 16.8234 18.1779 17.903C17.0868 18.9826 15.6652 19.6774 14.1333 19.8796ZM33.3404 0.585835C32.8833 0.586914 32.4322 0.688499 32.0199 0.883198C31.6076 1.0779 31.2445 1.36081 30.957 1.71136C30.6695 2.0619 30.4648 2.47125 30.3579 2.90963C30.251 3.34801 30.2445 3.80439 30.3389 4.24555C30.6281 5.67477 31.9815 6.65132 33.4559 6.65132H42.0119L28.6968 24.0318C28.5983 24.1601 28.5381 24.3129 28.5227 24.4731C28.5073 24.6333 28.5375 24.7946 28.6099 24.9389C28.6822 25.0831 28.7939 25.2046 28.9323 25.2898C29.0708 25.3749 29.2305 25.4204 29.3937 25.421H50.2798C51.7531 25.421 53.1075 24.4447 53.3967 23.0152C53.4912 22.5741 53.4847 22.1178 53.3779 21.6795C53.2711 21.2411 53.0666 20.8318 52.7792 20.4812C52.4918 20.1307 52.1289 19.8477 51.7167 19.6529C51.3045 19.458 50.8535 19.3563 50.3965 19.355H39.9716L53.2765 1.98805C53.376 1.8585 53.4368 1.70417 53.4523 1.54239C53.4678 1.38061 53.4372 1.21778 53.3641 1.07217C53.291 0.92655 53.1782 0.80391 53.0384 0.718006C52.8985 0.632103 52.7372 0.586334 52.5724 0.585835H33.3404ZM116.8 0.655798C116.108 0.817981 115.494 1.20807 115.057 1.76158C114.621 2.31509 114.39 2.99885 114.401 3.69983V13.7987L97.8107 0.776578C97.6806 0.674713 97.524 0.611144 97.3589 0.593184C97.1938 0.575223 97.0269 0.603601 96.8774 0.675051C96.7279 0.746502 96.602 0.858124 96.5139 0.997075C96.4259 1.13603 96.3795 1.29666 96.3799 1.4605V22.3124C96.3686 23.0134 96.6003 23.6972 97.0365 24.2507C97.4727 24.8042 98.0874 25.1943 98.7789 25.3564C99.2279 25.4539 99.6934 25.4506 100.141 25.347C100.589 25.2433 101.007 25.0419 101.365 24.7575C101.723 24.4731 102.012 24.1131 102.21 23.7039C102.408 23.2947 102.511 22.8469 102.51 22.3934V12.2072L119.101 25.2295C119.231 25.3313 119.387 25.3948 119.552 25.4128C119.717 25.4307 119.884 25.4023 120.034 25.3309C120.183 25.2595 120.309 25.1479 120.397 25.009C120.485 24.8702 120.531 24.7096 120.531 24.5458V3.61784C120.532 3.16446 120.429 2.71675 120.231 2.30772C120.032 1.89869 119.743 1.53878 119.385 1.25451C119.027 0.970248 118.609 0.768882 118.162 0.665261C117.714 0.561639 117.249 0.558406 116.8 0.655798ZM73.6036 6.07074C80.6208 6.07074 85.864 9.72849 85.864 13.0003C85.864 16.2722 80.6208 19.9299 73.6036 19.9299C66.5864 19.9299 61.3432 16.2722 61.3432 13.0003C61.3432 9.72849 66.5864 6.07074 73.6036 6.07074ZM73.6036 0.00550442C63.4465 0.00550442 55.2128 5.82354 55.2128 13.0003C55.2128 20.1771 63.4465 25.9952 73.6036 25.9952C83.7607 25.9952 91.9941 20.1771 91.9941 13.0003C91.9941 5.82354 83.7604 0.00550442 73.6036 0.00550442Z" fill="#0069FF"/>
</svg>
