<svg width="223" height="26" viewBox="0 0 223 26" fill="none" xmlns="http://www.w3.org/2000/svg">
<path d="M6.80216 25.5253L0 0.449426H4.46201L9.68834 19.709L15.2896 0.447754L19.4489 0.449426L25.0698 19.8113L30.3196 0.454162L34.7815 0.447754L27.9765 25.5209L22.8045 25.5156L17.371 6.78925L11.9323 25.5204L6.80216 25.5253Z" fill="#BE20A5"/>
<path d="M37.8594 0.462402H42.1068V25.509H37.8594V0.462402Z" fill="#BE20A5"/>
<path d="M51.1869 21.5802H61.5272V25.509H47.0273V0.462402H51.1869V21.5802Z" fill="#BE20A5"/>
<path d="M74.5923 0.49128C78.0781 0.49128 80.9781 1.70465 83.263 4.1024C85.5771 6.50016 86.7488 9.47577 86.7488 13.0002C86.7488 16.4958 85.5771 19.4713 83.263 21.8979C80.9781 24.2958 78.0781 25.509 74.5923 25.509H64.6035V0.462402H74.5923V0.49128ZM74.5923 21.609C76.9943 21.609 78.9569 20.8002 80.4215 19.1824C81.9448 17.5646 82.7064 15.4846 82.7064 13.029C82.7064 10.5158 81.9448 8.49352 80.4215 6.87577C78.9277 5.25792 76.965 4.44904 74.5923 4.44904H68.7924V21.609H74.5923Z" fill="#BE20A5"/>
<path d="M109.157 18.3539C109.157 20.4061 108.426 22.1114 106.931 23.4699C105.437 24.8284 103.68 25.522 101.512 25.522H90.6445V0.462402H100.721C102.801 0.462402 104.558 1.15614 105.994 2.45679C107.459 3.78632 108.162 5.43388 108.162 7.3993C108.162 9.59602 107.282 11.2725 105.584 12.5154C107.81 13.6715 109.157 15.7525 109.157 18.3539ZM94.8331 4.33557V10.9256H100.75C102.596 10.9256 104.002 9.48041 104.002 7.6306C104.002 5.7807 102.596 4.33557 100.75 4.33557H94.8331ZM101.541 21.649C103.474 21.649 104.998 20.117 104.998 18.1516C104.998 16.1861 103.474 14.6542 101.541 14.6542H94.8331V21.6778H101.541V21.649Z" fill="#BE20A5"/>
<path d="M117.27 21.5911H128.519V25.522H113.111V0.462402H128.344V4.39333H117.27V10.8967H127.435V14.7987H117.27V21.5911Z" fill="#BE20A5"/>
<path d="M146.74 25.522L141.35 16.3884H136.429V25.522H132.27V0.462402H142.434C144.719 0.462402 146.652 1.24277 148.205 2.83249C149.786 4.36445 150.607 6.2721 150.607 8.52658C150.607 11.706 148.585 14.6253 145.569 15.7814L151.339 25.522H146.74ZM136.429 4.33547V12.7176H142.405C144.631 12.7176 146.388 10.8678 146.388 8.52658C146.388 6.21425 144.602 4.33547 142.405 4.33547H136.429Z" fill="#BE20A5"/>
<path d="M168.972 25.5223L163.612 16.384H158.69V25.5223H154.531V0.449707H164.695C166.981 0.449707 168.914 1.23054 170.466 2.82109C172.048 4.35379 172.869 6.26238 172.869 8.51806C172.869 11.6992 170.847 14.62 167.83 15.7767L173.6 25.5223H168.972ZM158.69 4.32482V12.7113H164.667C166.892 12.7113 168.65 10.8605 168.65 8.51806C168.65 6.20462 166.864 4.32482 164.667 4.32482H158.69Z" fill="#BE20A5"/>
<path d="M176.648 0.45166H180.808V25.5215H176.648V0.45166Z" fill="#BE20A5"/>
<path d="M189.887 21.5911H201.135V25.5219H185.727V0.462402H200.959V4.39333H189.887V10.8967H200.051V14.7987H189.887V21.5911Z" fill="#BE20A5"/>
<path d="M204.039 19.8178L207.642 17.7378C208.667 20.5689 210.747 21.9555 213.939 21.9555C217.103 21.9555 218.656 20.6266 218.656 18.6622C218.656 17.6222 218.216 16.8711 217.397 16.3511C216.576 15.8022 215.053 15.1955 212.886 14.56C210.454 13.8378 209.253 13.3755 207.554 12.2778C205.914 11.1222 205.093 9.47551 205.093 7.22224C205.093 4.99776 205.884 3.26449 207.495 1.96449C209.077 0.635515 211.011 0 213.266 0C217.338 0 220.472 2.08 222.113 5.51776L218.597 7.51112C217.542 5.2 215.756 4.01551 213.266 4.01551C210.834 4.01551 209.282 5.22888 209.282 7.13551C209.282 8.98449 210.512 9.85112 214.408 11.0355C215.375 11.3534 216.078 11.5845 216.517 11.7578C216.986 11.9022 217.601 12.1622 218.392 12.48C219.213 12.7978 219.857 13.1734 220.238 13.4911C221.585 14.5311 223.02 16.2355 222.844 18.6334C222.844 20.8866 222.025 22.7066 220.355 24.0355C218.714 25.3645 216.547 26 213.852 26C208.931 25.9711 205.357 23.66 204.039 19.8178Z" fill="#BE20A5"/>
</svg>
